<?xml version="1.0" encoding="UTF-8" standalone="no"?>
<!DOCTYPE svg PUBLIC "-//W3C//DTD SVG 1.1//EN"
 "http://www.w3.org/Graphics/SVG/1.1/DTD/svg11.dtd">
<!-- Generated by graphviz version 3.0.0 (20220226.1711)
 -->
<!-- Title: G Pages: 1 -->
<svg width="503pt" height="147pt"
 viewBox="0.00 0.00 503.20 147.20" xmlns="http://www.w3.org/2000/svg" xmlns:xlink="http://www.w3.org/1999/xlink">
<g id="graph0" class="graph" transform="scale(1 1) rotate(0) translate(21.6 125.6)">
<title>G</title>
<polygon fill="#111111" stroke="transparent" points="-21.6,21.6 -21.6,-125.6 481.6,-125.6 481.6,21.6 -21.6,21.6"/>
<!-- ../common/base.resource.class.ts -->
<g id="node1" class="node">
<title>../common/base.resource.class.ts</title>
<path fill="none" stroke="#cfffac" d="M452.33,-23C452.33,-23 248.67,-23 248.67,-23 244.83,-23 241,-19.17 241,-15.33 241,-15.33 241,-7.67 241,-7.67 241,-3.83 244.83,0 248.67,0 248.67,0 452.33,0 452.33,0 456.17,0 460,-3.83 460,-7.67 460,-7.67 460,-15.33 460,-15.33 460,-19.17 456.17,-23 452.33,-23"/>
<text text-anchor="middle" x="350.5" y="-7.8" font-family="Arial" font-size="14.00" fill="#cfffac">../common/base.resource.class.ts</text>
</g>
<!-- index.ts -->
<g id="node2" class="node">
<title>index.ts</title>
<path fill="none" stroke="#c6c5fe" d="M55.33,-64C55.33,-64 7.67,-64 7.67,-64 3.83,-64 0,-60.17 0,-56.33 0,-56.33 0,-48.67 0,-48.67 0,-44.83 3.83,-41 7.67,-41 7.67,-41 55.33,-41 55.33,-41 59.17,-41 63,-44.83 63,-48.67 63,-48.67 63,-56.33 63,-56.33 63,-60.17 59.17,-64 55.33,-64"/>
<text text-anchor="middle" x="31.5" y="-48.8" font-family="Arial" font-size="14.00" fill="#c6c5fe">index.ts</text>
</g>
<!-- movie.enum.ts -->
<g id="node3" class="node">
<title>movie.enum.ts</title>
<path fill="none" stroke="#cfffac" d="M197.33,-104C197.33,-104 106.67,-104 106.67,-104 102.83,-104 99,-100.17 99,-96.33 99,-96.33 99,-88.67 99,-88.67 99,-84.83 102.83,-81 106.67,-81 106.67,-81 197.33,-81 197.33,-81 201.17,-81 205,-84.83 205,-88.67 205,-88.67 205,-96.33 205,-96.33 205,-100.17 201.17,-104 197.33,-104"/>
<text text-anchor="middle" x="152" y="-88.8" font-family="Arial" font-size="14.00" fill="#cfffac">movie.enum.ts</text>
</g>
<!-- index.ts&#45;&gt;movie.enum.ts -->
<g id="edge1" class="edge">
<title>index.ts&#45;&gt;movie.enum.ts</title>
<path fill="none" stroke="#757575" d="M63.02,-62.8C76.39,-67.31 92.34,-72.7 106.96,-77.63"/>
<polygon fill="#757575" stroke="#757575" points="106.23,-81.08 116.82,-80.96 108.47,-74.45 106.23,-81.08"/>
</g>
<!-- movie.interfaces.ts -->
<g id="node4" class="node">
<title>movie.interfaces.ts</title>
<path fill="none" stroke="#cfffac" d="M407.83,-64C407.83,-64 293.17,-64 293.17,-64 289.33,-64 285.5,-60.17 285.5,-56.33 285.5,-56.33 285.5,-48.67 285.5,-48.67 285.5,-44.83 289.33,-41 293.17,-41 293.17,-41 407.83,-41 407.83,-41 411.67,-41 415.5,-44.83 415.5,-48.67 415.5,-48.67 415.5,-56.33 415.5,-56.33 415.5,-60.17 411.67,-64 407.83,-64"/>
<text text-anchor="middle" x="350.5" y="-48.8" font-family="Arial" font-size="14.00" fill="#cfffac">movie.interfaces.ts</text>
</g>
<!-- index.ts&#45;&gt;movie.interfaces.ts -->
<g id="edge2" class="edge">
<title>index.ts&#45;&gt;movie.interfaces.ts</title>
<path fill="none" stroke="#757575" d="M63.18,-52.5C111.73,-52.5 207.66,-52.5 275.06,-52.5"/>
<polygon fill="#757575" stroke="#757575" points="275.2,-56 285.2,-52.5 275.2,-49 275.2,-56"/>
</g>
<!-- movie.ts -->
<g id="node5" class="node">
<title>movie.ts</title>
<path fill="none" stroke="#c6c5fe" d="M178.33,-24C178.33,-24 125.67,-24 125.67,-24 121.83,-24 118,-20.17 118,-16.33 118,-16.33 118,-8.67 118,-8.67 118,-4.83 121.83,-1 125.67,-1 125.67,-1 178.33,-1 178.33,-1 182.17,-1 186,-4.83 186,-8.67 186,-8.67 186,-16.33 186,-16.33 186,-20.17 182.17,-24 178.33,-24"/>
<text text-anchor="middle" x="152" y="-8.8" font-family="Arial" font-size="14.00" fill="#c6c5fe">movie.ts</text>
</g>
<!-- index.ts&#45;&gt;movie.ts -->
<g id="edge3" class="edge">
<title>index.ts&#45;&gt;movie.ts</title>
<path fill="none" stroke="#757575" d="M63.02,-42.2C76.74,-37.57 93.18,-32.02 108.12,-26.98"/>
<polygon fill="#757575" stroke="#757575" points="109.32,-30.26 117.67,-23.75 107.08,-23.63 109.32,-30.26"/>
</g>
<!-- movie.ts&#45;&gt;../common/base.resource.class.ts -->
<g id="edge4" class="edge">
<title>movie.ts&#45;&gt;../common/base.resource.class.ts</title>
<path fill="none" stroke="#757575" d="M186.33,-12.33C199.12,-12.27 214.56,-12.19 230.78,-12.1"/>
<polygon fill="#757575" stroke="#757575" points="230.98,-15.6 240.96,-12.05 230.94,-8.6 230.98,-15.6"/>
</g>
<!-- movie.ts&#45;&gt;movie.interfaces.ts -->
<g id="edge5" class="edge">
<title>movie.ts&#45;&gt;movie.interfaces.ts</title>
<path fill="none" stroke="#757575" d="M186.39,-19.89C202.82,-23.48 222.93,-27.8 241,-31.5 253.16,-33.99 266.11,-36.56 278.66,-39.02"/>
<polygon fill="#757575" stroke="#757575" points="278.14,-42.48 288.63,-40.96 279.48,-35.61 278.14,-42.48"/>
</g>
</g>
</svg>
