<?xml version="1.0" encoding="UTF-8" standalone="no"?>
<!DOCTYPE svg PUBLIC "-//W3C//DTD SVG 1.1//EN"
 "http://www.w3.org/Graphics/SVG/1.1/DTD/svg11.dtd">
<!-- Generated by graphviz version 3.0.0 (20220226.1711)
 -->
<!-- Title: G Pages: 1 -->
<svg width="522pt" height="147pt"
 viewBox="0.00 0.00 522.20 147.20" xmlns="http://www.w3.org/2000/svg" xmlns:xlink="http://www.w3.org/1999/xlink">
<g id="graph0" class="graph" transform="scale(1 1) rotate(0) translate(21.6 125.6)">
<title>G</title>
<polygon fill="#111111" stroke="transparent" points="-21.6,21.6 -21.6,-125.6 500.6,-125.6 500.6,21.6 -21.6,21.6"/>
<!-- ../common/base.resource.class.ts -->
<g id="node1" class="node">
<title>../common/base.resource.class.ts</title>
<path fill="none" stroke="#cfffac" d="M471.33,-23C471.33,-23 267.67,-23 267.67,-23 263.83,-23 260,-19.17 260,-15.33 260,-15.33 260,-7.67 260,-7.67 260,-3.83 263.83,0 267.67,0 267.67,0 471.33,0 471.33,0 475.17,0 479,-3.83 479,-7.67 479,-7.67 479,-15.33 479,-15.33 479,-19.17 475.17,-23 471.33,-23"/>
<text text-anchor="middle" x="369.5" y="-7.8" font-family="Arial" font-size="14.00" fill="#cfffac">../common/base.resource.class.ts</text>
</g>
<!-- character.enum.ts -->
<g id="node2" class="node">
<title>character.enum.ts</title>
<path fill="none" stroke="#cfffac" d="M216.33,-104C216.33,-104 106.67,-104 106.67,-104 102.83,-104 99,-100.17 99,-96.33 99,-96.33 99,-88.67 99,-88.67 99,-84.83 102.83,-81 106.67,-81 106.67,-81 216.33,-81 216.33,-81 220.17,-81 224,-84.83 224,-88.67 224,-88.67 224,-96.33 224,-96.33 224,-100.17 220.17,-104 216.33,-104"/>
<text text-anchor="middle" x="161.5" y="-88.8" font-family="Arial" font-size="14.00" fill="#cfffac">character.enum.ts</text>
</g>
<!-- character.interfaces.ts -->
<g id="node3" class="node">
<title>character.interfaces.ts</title>
<path fill="none" stroke="#cfffac" d="M436.33,-64C436.33,-64 302.67,-64 302.67,-64 298.83,-64 295,-60.17 295,-56.33 295,-56.33 295,-48.67 295,-48.67 295,-44.83 298.83,-41 302.67,-41 302.67,-41 436.33,-41 436.33,-41 440.17,-41 444,-44.83 444,-48.67 444,-48.67 444,-56.33 444,-56.33 444,-60.17 440.17,-64 436.33,-64"/>
<text text-anchor="middle" x="369.5" y="-48.8" font-family="Arial" font-size="14.00" fill="#cfffac">character.interfaces.ts</text>
</g>
<!-- character.ts -->
<g id="node4" class="node">
<title>character.ts</title>
<path fill="none" stroke="#c6c5fe" d="M196.83,-24C196.83,-24 126.17,-24 126.17,-24 122.33,-24 118.5,-20.17 118.5,-16.33 118.5,-16.33 118.5,-8.67 118.5,-8.67 118.5,-4.83 122.33,-1 126.17,-1 126.17,-1 196.83,-1 196.83,-1 200.67,-1 204.5,-4.83 204.5,-8.67 204.5,-8.67 204.5,-16.33 204.5,-16.33 204.5,-20.17 200.67,-24 196.83,-24"/>
<text text-anchor="middle" x="161.5" y="-8.8" font-family="Arial" font-size="14.00" fill="#c6c5fe">character.ts</text>
</g>
<!-- character.ts&#45;&gt;../common/base.resource.class.ts -->
<g id="edge1" class="edge">
<title>character.ts&#45;&gt;../common/base.resource.class.ts</title>
<path fill="none" stroke="#757575" d="M204.68,-12.3C218.14,-12.23 233.74,-12.15 249.88,-12.08"/>
<polygon fill="#757575" stroke="#757575" points="249.99,-15.58 259.97,-12.03 249.96,-8.58 249.99,-15.58"/>
</g>
<!-- character.ts&#45;&gt;character.interfaces.ts -->
<g id="edge2" class="edge">
<title>character.ts&#45;&gt;character.interfaces.ts</title>
<path fill="none" stroke="#757575" d="M204.73,-20.74C221.88,-24.09 241.89,-27.98 260,-31.5 272.48,-33.92 285.78,-36.5 298.62,-38.99"/>
<polygon fill="#757575" stroke="#757575" points="298.32,-42.5 308.8,-40.96 299.65,-35.62 298.32,-42.5"/>
</g>
<!-- index.ts -->
<g id="node5" class="node">
<title>index.ts</title>
<path fill="none" stroke="#c6c5fe" d="M55.33,-64C55.33,-64 7.67,-64 7.67,-64 3.83,-64 0,-60.17 0,-56.33 0,-56.33 0,-48.67 0,-48.67 0,-44.83 3.83,-41 7.67,-41 7.67,-41 55.33,-41 55.33,-41 59.17,-41 63,-44.83 63,-48.67 63,-48.67 63,-56.33 63,-56.33 63,-60.17 59.17,-64 55.33,-64"/>
<text text-anchor="middle" x="31.5" y="-48.8" font-family="Arial" font-size="14.00" fill="#c6c5fe">index.ts</text>
</g>
<!-- index.ts&#45;&gt;character.enum.ts -->
<g id="edge3" class="edge">
<title>index.ts&#45;&gt;character.enum.ts</title>
<path fill="none" stroke="#757575" d="M63.16,-62.08C78.24,-66.8 96.76,-72.58 113.58,-77.84"/>
<polygon fill="#757575" stroke="#757575" points="112.65,-81.22 123.24,-80.86 114.74,-74.53 112.65,-81.22"/>
</g>
<!-- index.ts&#45;&gt;character.interfaces.ts -->
<g id="edge4" class="edge">
<title>index.ts&#45;&gt;character.interfaces.ts</title>
<path fill="none" stroke="#757575" d="M63.21,-52.5C112.85,-52.5 212.43,-52.5 284.38,-52.5"/>
<polygon fill="#757575" stroke="#757575" points="284.79,-56 294.79,-52.5 284.79,-49 284.79,-56"/>
</g>
<!-- index.ts&#45;&gt;character.ts -->
<g id="edge5" class="edge">
<title>index.ts&#45;&gt;character.ts</title>
<path fill="none" stroke="#757575" d="M63.16,-42.92C78.24,-38.2 96.76,-32.42 113.58,-27.16"/>
<polygon fill="#757575" stroke="#757575" points="114.74,-30.47 123.24,-24.14 112.65,-23.78 114.74,-30.47"/>
</g>
</g>
</svg>
