<?xml version="1.0" encoding="UTF-8" standalone="no"?>
<!DOCTYPE svg PUBLIC "-//W3C//DTD SVG 1.1//EN"
 "http://www.w3.org/Graphics/SVG/1.1/DTD/svg11.dtd">
<!-- Generated by graphviz version 3.0.0 (20220226.1711)
 -->
<!-- Title: G Pages: 1 -->
<svg width="967pt" height="733pt"
 viewBox="0.00 0.00 967.20 732.52" xmlns="http://www.w3.org/2000/svg" xmlns:xlink="http://www.w3.org/1999/xlink">
<g id="graph0" class="graph" transform="scale(1 1) rotate(0) translate(21.6 710.92)">
<title>G</title>
<polygon fill="#111111" stroke="transparent" points="-21.6,21.6 -21.6,-710.92 945.6,-710.92 945.6,21.6 -21.6,21.6"/>
<!-- book/book.enums.ts -->
<g id="node1" class="node">
<title>book/book.enums.ts</title>
<path fill="none" stroke="#cfffac" d="M418.83,-689.32C418.83,-689.32 296.17,-689.32 296.17,-689.32 292.33,-689.32 288.5,-685.49 288.5,-681.66 288.5,-681.66 288.5,-673.99 288.5,-673.99 288.5,-670.16 292.33,-666.32 296.17,-666.32 296.17,-666.32 418.83,-666.32 418.83,-666.32 422.67,-666.32 426.5,-670.16 426.5,-673.99 426.5,-673.99 426.5,-681.66 426.5,-681.66 426.5,-685.49 422.67,-689.32 418.83,-689.32"/>
<text text-anchor="middle" x="357.5" y="-674.12" font-family="Arial" font-size="14.00" fill="#cfffac">book/book.enums.ts</text>
</g>
<!-- book/book.interfaces.ts -->
<g id="node2" class="node">
<title>book/book.interfaces.ts</title>
<path fill="none" stroke="#cfffac" d="M667.33,-629.32C667.33,-629.32 527.67,-629.32 527.67,-629.32 523.83,-629.32 520,-625.49 520,-621.66 520,-621.66 520,-613.99 520,-613.99 520,-610.16 523.83,-606.32 527.67,-606.32 527.67,-606.32 667.33,-606.32 667.33,-606.32 671.17,-606.32 675,-610.16 675,-613.99 675,-613.99 675,-621.66 675,-621.66 675,-625.49 671.17,-629.32 667.33,-629.32"/>
<text text-anchor="middle" x="597.5" y="-614.12" font-family="Arial" font-size="14.00" fill="#cfffac">book/book.interfaces.ts</text>
</g>
<!-- book/book.ts -->
<g id="node3" class="node">
<title>book/book.ts</title>
<path fill="none" stroke="#c6c5fe" d="M396.33,-609.32C396.33,-609.32 318.67,-609.32 318.67,-609.32 314.83,-609.32 311,-605.49 311,-601.66 311,-601.66 311,-593.99 311,-593.99 311,-590.16 314.83,-586.32 318.67,-586.32 318.67,-586.32 396.33,-586.32 396.33,-586.32 400.17,-586.32 404,-590.16 404,-593.99 404,-593.99 404,-601.66 404,-601.66 404,-605.49 400.17,-609.32 396.33,-609.32"/>
<text text-anchor="middle" x="357.5" y="-594.12" font-family="Arial" font-size="14.00" fill="#c6c5fe">book/book.ts</text>
</g>
<!-- book/book.ts&#45;&gt;book/book.interfaces.ts -->
<g id="edge1" class="edge">
<title>book/book.ts&#45;&gt;book/book.interfaces.ts</title>
<path fill="none" stroke="#757575" d="M404.11,-601.66C433.96,-604.16 473.93,-607.52 509.7,-610.53"/>
<polygon fill="#757575" stroke="#757575" points="509.41,-614.02 519.67,-611.37 510,-607.04 509.41,-614.02"/>
</g>
<!-- common/base.resource.class.ts -->
<g id="node4" class="node">
<title>common/base.resource.class.ts</title>
<path fill="none" stroke="#cfffac" d="M693.83,-445.32C693.83,-445.32 501.17,-445.32 501.17,-445.32 497.33,-445.32 493.5,-441.49 493.5,-437.66 493.5,-437.66 493.5,-429.99 493.5,-429.99 493.5,-426.16 497.33,-422.32 501.17,-422.32 501.17,-422.32 693.83,-422.32 693.83,-422.32 697.67,-422.32 701.5,-426.16 701.5,-429.99 701.5,-429.99 701.5,-437.66 701.5,-437.66 701.5,-441.49 697.67,-445.32 693.83,-445.32"/>
<text text-anchor="middle" x="597.5" y="-430.12" font-family="Arial" font-size="14.00" fill="#cfffac">common/base.resource.class.ts</text>
</g>
<!-- book/book.ts&#45;&gt;common/base.resource.class.ts -->
<g id="edge2" class="edge">
<title>book/book.ts&#45;&gt;common/base.resource.class.ts</title>
<path fill="none" stroke="#757575" d="M404.11,-594.34C421.47,-591.57 440.93,-586.62 457,-577.82 513.41,-546.95 561.06,-485.63 583.21,-453.9"/>
<polygon fill="#757575" stroke="#757575" points="586.25,-455.65 589.01,-445.42 580.47,-451.7 586.25,-455.65"/>
</g>
<!-- book/index.ts -->
<g id="node5" class="node">
<title>book/index.ts</title>
<path fill="none" stroke="#c6c5fe" d="M200.83,-629.32C200.83,-629.32 120.17,-629.32 120.17,-629.32 116.33,-629.32 112.5,-625.49 112.5,-621.66 112.5,-621.66 112.5,-613.99 112.5,-613.99 112.5,-610.16 116.33,-606.32 120.17,-606.32 120.17,-606.32 200.83,-606.32 200.83,-606.32 204.67,-606.32 208.5,-610.16 208.5,-613.99 208.5,-613.99 208.5,-621.66 208.5,-621.66 208.5,-625.49 204.67,-629.32 200.83,-629.32"/>
<text text-anchor="middle" x="160.5" y="-614.12" font-family="Arial" font-size="14.00" fill="#c6c5fe">book/index.ts</text>
</g>
<!-- book/index.ts&#45;&gt;book/book.enums.ts -->
<g id="edge3" class="edge">
<title>book/index.ts&#45;&gt;book/book.enums.ts</title>
<path fill="none" stroke="#757575" d="M192.15,-629.33C211.01,-636.24 235.76,-644.98 258,-651.82 271.47,-655.97 286.09,-660.05 299.85,-663.71"/>
<polygon fill="#757575" stroke="#757575" points="299.12,-667.13 309.68,-666.29 300.9,-660.36 299.12,-667.13"/>
</g>
<!-- book/index.ts&#45;&gt;book/book.interfaces.ts -->
<g id="edge4" class="edge">
<title>book/index.ts&#45;&gt;book/book.interfaces.ts</title>
<path fill="none" stroke="#757575" d="M208.62,-618.41C224.32,-618.58 241.92,-618.74 258,-618.82 346.44,-619.28 368.56,-619.14 457,-618.82 474.01,-618.76 492.18,-618.66 509.6,-618.54"/>
<polygon fill="#757575" stroke="#757575" points="509.78,-622.04 519.75,-618.47 509.73,-615.04 509.78,-622.04"/>
</g>
<!-- book/index.ts&#45;&gt;book/book.ts -->
<g id="edge5" class="edge">
<title>book/index.ts&#45;&gt;book/book.ts</title>
<path fill="none" stroke="#757575" d="M208.7,-612.98C236.43,-610.14 271.63,-606.53 300.73,-603.54"/>
<polygon fill="#757575" stroke="#757575" points="301.15,-607.02 310.74,-602.52 300.43,-600.06 301.15,-607.02"/>
</g>
<!-- chapter/chapter.enums.ts -->
<g id="node6" class="node">
<title>chapter/chapter.enums.ts</title>
<path fill="none" stroke="#cfffac" d="M434.33,-527.32C434.33,-527.32 280.67,-527.32 280.67,-527.32 276.83,-527.32 273,-523.49 273,-519.66 273,-519.66 273,-511.99 273,-511.99 273,-508.16 276.83,-504.32 280.67,-504.32 280.67,-504.32 434.33,-504.32 434.33,-504.32 438.17,-504.32 442,-508.16 442,-511.99 442,-511.99 442,-519.66 442,-519.66 442,-523.49 438.17,-527.32 434.33,-527.32"/>
<text text-anchor="middle" x="357.5" y="-512.12" font-family="Arial" font-size="14.00" fill="#cfffac">chapter/chapter.enums.ts</text>
</g>
<!-- chapter/chapter.interfaces.ts -->
<g id="node7" class="node">
<title>chapter/chapter.interfaces.ts</title>
<path fill="none" stroke="#cfffac" d="M442.83,-486.32C442.83,-486.32 272.17,-486.32 272.17,-486.32 268.33,-486.32 264.5,-482.49 264.5,-478.66 264.5,-478.66 264.5,-470.99 264.5,-470.99 264.5,-467.16 268.33,-463.32 272.17,-463.32 272.17,-463.32 442.83,-463.32 442.83,-463.32 446.67,-463.32 450.5,-467.16 450.5,-470.99 450.5,-470.99 450.5,-478.66 450.5,-478.66 450.5,-482.49 446.67,-486.32 442.83,-486.32"/>
<text text-anchor="middle" x="357.5" y="-471.12" font-family="Arial" font-size="14.00" fill="#cfffac">chapter/chapter.interfaces.ts</text>
</g>
<!-- chapter/chapter.ts -->
<g id="node8" class="node">
<title>chapter/chapter.ts</title>
<path fill="none" stroke="#c6c5fe" d="M411.83,-568.32C411.83,-568.32 303.17,-568.32 303.17,-568.32 299.33,-568.32 295.5,-564.49 295.5,-560.66 295.5,-560.66 295.5,-552.99 295.5,-552.99 295.5,-549.16 299.33,-545.32 303.17,-545.32 303.17,-545.32 411.83,-545.32 411.83,-545.32 415.67,-545.32 419.5,-549.16 419.5,-552.99 419.5,-552.99 419.5,-560.66 419.5,-560.66 419.5,-564.49 415.67,-568.32 411.83,-568.32"/>
<text text-anchor="middle" x="357.5" y="-553.12" font-family="Arial" font-size="14.00" fill="#c6c5fe">chapter/chapter.ts</text>
</g>
<!-- chapter/chapter.ts&#45;&gt;common/base.resource.class.ts -->
<g id="edge6" class="edge">
<title>chapter/chapter.ts&#45;&gt;common/base.resource.class.ts</title>
<path fill="none" stroke="#757575" d="M419.69,-548.7C432.35,-545.85 445.36,-542 457,-536.82 504.66,-515.64 551.7,-475.96 577.14,-452.51"/>
<polygon fill="#757575" stroke="#757575" points="579.7,-454.91 584.61,-445.52 574.92,-449.8 579.7,-454.91"/>
</g>
<!-- chapter/index.ts -->
<g id="node9" class="node">
<title>chapter/index.ts</title>
<path fill="none" stroke="#c6c5fe" d="M208.83,-506.32C208.83,-506.32 112.17,-506.32 112.17,-506.32 108.33,-506.32 104.5,-502.49 104.5,-498.66 104.5,-498.66 104.5,-490.99 104.5,-490.99 104.5,-487.16 108.33,-483.32 112.17,-483.32 112.17,-483.32 208.83,-483.32 208.83,-483.32 212.67,-483.32 216.5,-487.16 216.5,-490.99 216.5,-490.99 216.5,-498.66 216.5,-498.66 216.5,-502.49 212.67,-506.32 208.83,-506.32"/>
<text text-anchor="middle" x="160.5" y="-491.12" font-family="Arial" font-size="14.00" fill="#c6c5fe">chapter/index.ts</text>
</g>
<!-- chapter/index.ts&#45;&gt;chapter/chapter.enums.ts -->
<g id="edge7" class="edge">
<title>chapter/index.ts&#45;&gt;chapter/chapter.enums.ts</title>
<path fill="none" stroke="#757575" d="M216.6,-500.76C230.92,-502.3 246.75,-504 262.47,-505.7"/>
<polygon fill="#757575" stroke="#757575" points="262.44,-509.21 272.76,-506.81 263.19,-502.25 262.44,-509.21"/>
</g>
<!-- chapter/index.ts&#45;&gt;chapter/chapter.interfaces.ts -->
<g id="edge8" class="edge">
<title>chapter/index.ts&#45;&gt;chapter/chapter.interfaces.ts</title>
<path fill="none" stroke="#757575" d="M216.6,-489.17C228.33,-487.97 241.08,-486.66 253.94,-485.34"/>
<polygon fill="#757575" stroke="#757575" points="254.68,-488.79 264.27,-484.28 253.96,-481.82 254.68,-488.79"/>
</g>
<!-- chapter/index.ts&#45;&gt;chapter/chapter.ts -->
<g id="edge9" class="edge">
<title>chapter/index.ts&#45;&gt;chapter/chapter.ts</title>
<path fill="none" stroke="#757575" d="M184.37,-506.41C203.6,-515.75 232.04,-528.64 258,-536.82 266.74,-539.58 276.04,-542.04 285.3,-544.22"/>
<polygon fill="#757575" stroke="#757575" points="284.78,-547.7 295.3,-546.48 286.31,-540.87 284.78,-547.7"/>
</g>
<!-- character/character.enum.ts -->
<g id="node10" class="node">
<title>character/character.enum.ts</title>
<path fill="none" stroke="#cfffac" d="M442.33,-404.32C442.33,-404.32 272.67,-404.32 272.67,-404.32 268.83,-404.32 265,-400.49 265,-396.66 265,-396.66 265,-388.99 265,-388.99 265,-385.16 268.83,-381.32 272.67,-381.32 272.67,-381.32 442.33,-381.32 442.33,-381.32 446.17,-381.32 450,-385.16 450,-388.99 450,-388.99 450,-396.66 450,-396.66 450,-400.49 446.17,-404.32 442.33,-404.32"/>
<text text-anchor="middle" x="357.5" y="-389.12" font-family="Arial" font-size="14.00" fill="#cfffac">character/character.enum.ts</text>
</g>
<!-- character/character.interfaces.ts -->
<g id="node11" class="node">
<title>character/character.interfaces.ts</title>
<path fill="none" stroke="#cfffac" d="M694.33,-385.32C694.33,-385.32 500.67,-385.32 500.67,-385.32 496.83,-385.32 493,-381.49 493,-377.66 493,-377.66 493,-369.99 493,-369.99 493,-366.16 496.83,-362.32 500.67,-362.32 500.67,-362.32 694.33,-362.32 694.33,-362.32 698.17,-362.32 702,-366.16 702,-369.99 702,-369.99 702,-377.66 702,-377.66 702,-381.49 698.17,-385.32 694.33,-385.32"/>
<text text-anchor="middle" x="597.5" y="-370.12" font-family="Arial" font-size="14.00" fill="#cfffac">character/character.interfaces.ts</text>
</g>
<!-- character/character.ts -->
<g id="node12" class="node">
<title>character/character.ts</title>
<path fill="none" stroke="#c6c5fe" d="M422.83,-445.32C422.83,-445.32 292.17,-445.32 292.17,-445.32 288.33,-445.32 284.5,-441.49 284.5,-437.66 284.5,-437.66 284.5,-429.99 284.5,-429.99 284.5,-426.16 288.33,-422.32 292.17,-422.32 292.17,-422.32 422.83,-422.32 422.83,-422.32 426.67,-422.32 430.5,-426.16 430.5,-429.99 430.5,-429.99 430.5,-437.66 430.5,-437.66 430.5,-441.49 426.67,-445.32 422.83,-445.32"/>
<text text-anchor="middle" x="357.5" y="-430.12" font-family="Arial" font-size="14.00" fill="#c6c5fe">character/character.ts</text>
</g>
<!-- character/character.ts&#45;&gt;common/base.resource.class.ts -->
<g id="edge11" class="edge">
<title>character/character.ts&#45;&gt;common/base.resource.class.ts</title>
<path fill="none" stroke="#757575" d="M430.55,-433.82C447.02,-433.82 464.92,-433.82 482.67,-433.82"/>
<polygon fill="#757575" stroke="#757575" points="483.08,-437.32 493.08,-433.82 483.08,-430.32 483.08,-437.32"/>
</g>
<!-- character/character.ts&#45;&gt;character/character.interfaces.ts -->
<g id="edge10" class="edge">
<title>character/character.ts&#45;&gt;character/character.interfaces.ts</title>
<path fill="none" stroke="#757575" d="M419.09,-422.3C431.66,-419.69 444.8,-416.81 457,-413.82 487.92,-406.26 522.31,-396.42 549.2,-388.39"/>
<polygon fill="#757575" stroke="#757575" points="550.55,-391.64 559.12,-385.41 548.53,-384.94 550.55,-391.64"/>
</g>
<!-- character/index.ts -->
<g id="node13" class="node">
<title>character/index.ts</title>
<path fill="none" stroke="#c6c5fe" d="M214.33,-384.32C214.33,-384.32 106.67,-384.32 106.67,-384.32 102.83,-384.32 99,-380.49 99,-376.66 99,-376.66 99,-368.99 99,-368.99 99,-365.16 102.83,-361.32 106.67,-361.32 106.67,-361.32 214.33,-361.32 214.33,-361.32 218.17,-361.32 222,-365.16 222,-368.99 222,-368.99 222,-376.66 222,-376.66 222,-380.49 218.17,-384.32 214.33,-384.32"/>
<text text-anchor="middle" x="160.5" y="-369.12" font-family="Arial" font-size="14.00" fill="#c6c5fe">character/index.ts</text>
</g>
<!-- character/index.ts&#45;&gt;character/character.enum.ts -->
<g id="edge12" class="edge">
<title>character/index.ts&#45;&gt;character/character.enum.ts</title>
<path fill="none" stroke="#757575" d="M222.13,-379.04C232.49,-380.1 243.5,-381.23 254.58,-382.37"/>
<polygon fill="#757575" stroke="#757575" points="254.46,-385.88 264.77,-383.41 255.18,-378.91 254.46,-385.88"/>
</g>
<!-- character/index.ts&#45;&gt;character/character.interfaces.ts -->
<g id="edge13" class="edge">
<title>character/index.ts&#45;&gt;character/character.interfaces.ts</title>
<path fill="none" stroke="#757575" d="M222.06,-372.7C281.79,-372.6 375.69,-372.53 457,-372.82 465.36,-372.85 473.99,-372.89 482.68,-372.94"/>
<polygon fill="#757575" stroke="#757575" points="482.88,-376.44 492.9,-373 482.92,-369.44 482.88,-376.44"/>
</g>
<!-- character/index.ts&#45;&gt;character/character.ts -->
<g id="edge14" class="edge">
<title>character/index.ts&#45;&gt;character/character.ts</title>
<path fill="none" stroke="#757575" d="M185.19,-384.48C204.42,-393.55 232.45,-405.89 258,-413.82 265.18,-416.05 272.74,-418.1 280.34,-419.96"/>
<polygon fill="#757575" stroke="#757575" points="279.8,-423.43 290.33,-422.3 281.4,-416.61 279.8,-423.43"/>
</g>
<!-- common/common.enums.ts -->
<g id="node14" class="node">
<title>common/common.enums.ts</title>
<path fill="none" stroke="#cfffac" d="M916.33,-286.32C916.33,-286.32 745.67,-286.32 745.67,-286.32 741.83,-286.32 738,-282.49 738,-278.66 738,-278.66 738,-270.99 738,-270.99 738,-267.16 741.83,-263.32 745.67,-263.32 745.67,-263.32 916.33,-263.32 916.33,-263.32 920.17,-263.32 924,-267.16 924,-270.99 924,-270.99 924,-278.66 924,-278.66 924,-282.49 920.17,-286.32 916.33,-286.32"/>
<text text-anchor="middle" x="831" y="-271.12" font-family="Arial" font-size="14.00" fill="#cfffac">common/common.enums.ts</text>
</g>
<!-- common/common.functions.ts -->
<g id="node15" class="node">
<title>common/common.functions.ts</title>
<path fill="none" stroke="#c6c5fe" d="M449.33,-324.32C449.33,-324.32 265.67,-324.32 265.67,-324.32 261.83,-324.32 258,-320.49 258,-316.66 258,-316.66 258,-308.99 258,-308.99 258,-305.16 261.83,-301.32 265.67,-301.32 265.67,-301.32 449.33,-301.32 449.33,-301.32 453.17,-301.32 457,-305.16 457,-308.99 457,-308.99 457,-316.66 457,-316.66 457,-320.49 453.17,-324.32 449.33,-324.32"/>
<text text-anchor="middle" x="357.5" y="-309.12" font-family="Arial" font-size="14.00" fill="#c6c5fe">common/common.functions.ts</text>
</g>
<!-- common/common.functions.ts&#45;&gt;common/common.enums.ts -->
<g id="edge15" class="edge">
<title>common/common.functions.ts&#45;&gt;common/common.enums.ts</title>
<path fill="none" stroke="#757575" d="M457.19,-310.9C525.97,-308.83 619.77,-304.58 702,-295.82 720.42,-293.86 740.22,-290.99 758.61,-288"/>
<polygon fill="#757575" stroke="#757575" points="759.37,-291.42 768.67,-286.33 758.23,-284.52 759.37,-291.42"/>
</g>
<!-- common/common.interface.ts -->
<g id="node16" class="node">
<title>common/common.interface.ts</title>
<path fill="none" stroke="#c6c5fe" d="M688.33,-286.32C688.33,-286.32 506.67,-286.32 506.67,-286.32 502.83,-286.32 499,-282.49 499,-278.66 499,-278.66 499,-270.99 499,-270.99 499,-267.16 502.83,-263.32 506.67,-263.32 506.67,-263.32 688.33,-263.32 688.33,-263.32 692.17,-263.32 696,-267.16 696,-270.99 696,-270.99 696,-278.66 696,-278.66 696,-282.49 692.17,-286.32 688.33,-286.32"/>
<text text-anchor="middle" x="597.5" y="-271.12" font-family="Arial" font-size="14.00" fill="#c6c5fe">common/common.interface.ts</text>
</g>
<!-- common/common.functions.ts&#45;&gt;common/common.interface.ts -->
<g id="edge16" class="edge">
<title>common/common.functions.ts&#45;&gt;common/common.interface.ts</title>
<path fill="none" stroke="#757575" d="M430.55,-301.32C457,-297.1 487.12,-292.29 514.38,-287.94"/>
<polygon fill="#757575" stroke="#757575" points="514.96,-291.39 524.28,-286.35 513.85,-284.47 514.96,-291.39"/>
</g>
<!-- common/common.interface.ts&#45;&gt;common/common.enums.ts -->
<g id="edge17" class="edge">
<title>common/common.interface.ts&#45;&gt;common/common.enums.ts</title>
<path fill="none" stroke="#757575" d="M696.01,-274.82C706.49,-274.82 717.19,-274.82 727.73,-274.82"/>
<polygon fill="#757575" stroke="#757575" points="727.78,-278.32 737.78,-274.82 727.78,-271.32 727.78,-278.32"/>
</g>
<!-- common/index.ts -->
<g id="node17" class="node">
<title>common/index.ts</title>
<path fill="none" stroke="#c6c5fe" d="M212.83,-304.32C212.83,-304.32 108.17,-304.32 108.17,-304.32 104.33,-304.32 100.5,-300.49 100.5,-296.66 100.5,-296.66 100.5,-288.99 100.5,-288.99 100.5,-285.16 104.33,-281.32 108.17,-281.32 108.17,-281.32 212.83,-281.32 212.83,-281.32 216.67,-281.32 220.5,-285.16 220.5,-288.99 220.5,-288.99 220.5,-296.66 220.5,-296.66 220.5,-300.49 216.67,-304.32 212.83,-304.32"/>
<text text-anchor="middle" x="160.5" y="-289.12" font-family="Arial" font-size="14.00" fill="#c6c5fe">common/index.ts</text>
</g>
<!-- common/index.ts&#45;&gt;common/common.enums.ts -->
<g id="edge18" class="edge">
<title>common/index.ts&#45;&gt;common/common.enums.ts</title>
<path fill="none" stroke="#757575" d="M220.58,-281.59C232.91,-279.48 245.86,-277.43 258,-275.82 453.84,-249.87 505.04,-239.53 702,-254.82 720.54,-256.26 740.46,-258.86 758.93,-261.72"/>
<polygon fill="#757575" stroke="#757575" points="758.6,-265.21 769.03,-263.32 759.7,-258.29 758.6,-265.21"/>
</g>
<!-- common/index.ts&#45;&gt;common/common.functions.ts -->
<g id="edge19" class="edge">
<title>common/index.ts&#45;&gt;common/common.functions.ts</title>
<path fill="none" stroke="#757575" d="M220.54,-298.88C229.18,-299.76 238.3,-300.7 247.57,-301.65"/>
<polygon fill="#757575" stroke="#757575" points="247.35,-305.15 257.66,-302.69 248.07,-298.18 247.35,-305.15"/>
</g>
<!-- common/index.ts&#45;&gt;common/common.interface.ts -->
<g id="edge20" class="edge">
<title>common/index.ts&#45;&gt;common/common.interface.ts</title>
<path fill="none" stroke="#757575" d="M220.62,-290.38C289.26,-287.54 403.87,-282.79 488.52,-279.29"/>
<polygon fill="#757575" stroke="#757575" points="488.85,-282.78 498.69,-278.87 488.56,-275.79 488.85,-282.78"/>
</g>
<!-- index.ts -->
<g id="node18" class="node">
<title>index.ts</title>
<path fill="none" stroke="#c6c5fe" d="M55.33,-344.32C55.33,-344.32 7.67,-344.32 7.67,-344.32 3.83,-344.32 0,-340.49 0,-336.66 0,-336.66 0,-328.99 0,-328.99 0,-325.16 3.83,-321.32 7.67,-321.32 7.67,-321.32 55.33,-321.32 55.33,-321.32 59.17,-321.32 63,-325.16 63,-328.99 63,-328.99 63,-336.66 63,-336.66 63,-340.49 59.17,-344.32 55.33,-344.32"/>
<text text-anchor="middle" x="31.5" y="-329.12" font-family="Arial" font-size="14.00" fill="#c6c5fe">index.ts</text>
</g>
<!-- index.ts&#45;&gt;book/index.ts -->
<g id="edge21" class="edge">
<title>index.ts&#45;&gt;book/index.ts</title>
<path fill="none" stroke="#757575" d="M35.97,-344.69C44.79,-374.29 69.51,-453.49 99,-515.82 112.99,-545.39 132.91,-577.53 146.02,-597.67"/>
<polygon fill="#757575" stroke="#757575" points="143.26,-599.85 151.68,-606.28 149.11,-596.01 143.26,-599.85"/>
</g>
<!-- index.ts&#45;&gt;chapter/index.ts -->
<g id="edge22" class="edge">
<title>index.ts&#45;&gt;chapter/index.ts</title>
<path fill="none" stroke="#757575" d="M41.63,-344.47C63.14,-371.91 117.19,-440.85 143.97,-475.01"/>
<polygon fill="#757575" stroke="#757575" points="141.53,-477.57 150.45,-483.28 147.03,-473.25 141.53,-477.57"/>
</g>
<!-- index.ts&#45;&gt;character/index.ts -->
<g id="edge23" class="edge">
<title>index.ts&#45;&gt;character/index.ts</title>
<path fill="none" stroke="#757575" d="M63.24,-342.51C78.22,-347.22 96.54,-352.99 113.16,-358.23"/>
<polygon fill="#757575" stroke="#757575" points="112.12,-361.57 122.71,-361.24 114.23,-354.89 112.12,-361.57"/>
</g>
<!-- index.ts&#45;&gt;common/index.ts -->
<g id="edge24" class="edge">
<title>index.ts&#45;&gt;common/index.ts</title>
<path fill="none" stroke="#757575" d="M63.24,-323.14C78.22,-318.42 96.54,-312.65 113.16,-307.42"/>
<polygon fill="#757575" stroke="#757575" points="114.23,-310.75 122.71,-304.41 112.12,-304.08 114.23,-310.75"/>
</g>
<!-- movie/index.ts -->
<g id="node19" class="node">
<title>movie/index.ts</title>
<path fill="none" stroke="#c6c5fe" d="M204.83,-185.32C204.83,-185.32 116.17,-185.32 116.17,-185.32 112.33,-185.32 108.5,-181.49 108.5,-177.66 108.5,-177.66 108.5,-169.99 108.5,-169.99 108.5,-166.16 112.33,-162.32 116.17,-162.32 116.17,-162.32 204.83,-162.32 204.83,-162.32 208.67,-162.32 212.5,-166.16 212.5,-169.99 212.5,-169.99 212.5,-177.66 212.5,-177.66 212.5,-181.49 208.67,-185.32 204.83,-185.32"/>
<text text-anchor="middle" x="160.5" y="-170.12" font-family="Arial" font-size="14.00" fill="#c6c5fe">movie/index.ts</text>
</g>
<!-- index.ts&#45;&gt;movie/index.ts -->
<g id="edge25" class="edge">
<title>index.ts&#45;&gt;movie/index.ts</title>
<path fill="none" stroke="#757575" d="M41.84,-321.13C63.4,-294.14 116.84,-227.23 143.64,-193.68"/>
<polygon fill="#757575" stroke="#757575" points="146.64,-195.53 150.15,-185.53 141.17,-191.16 146.64,-195.53"/>
</g>
<!-- quote/index.ts -->
<g id="node20" class="node">
<title>quote/index.ts</title>
<path fill="none" stroke="#c6c5fe" d="M203.33,-65.32C203.33,-65.32 117.67,-65.32 117.67,-65.32 113.83,-65.32 110,-61.49 110,-57.66 110,-57.66 110,-49.99 110,-49.99 110,-46.16 113.83,-42.32 117.67,-42.32 117.67,-42.32 203.33,-42.32 203.33,-42.32 207.17,-42.32 211,-46.16 211,-49.99 211,-49.99 211,-57.66 211,-57.66 211,-61.49 207.17,-65.32 203.33,-65.32"/>
<text text-anchor="middle" x="160.5" y="-50.12" font-family="Arial" font-size="14.00" fill="#c6c5fe">quote/index.ts</text>
</g>
<!-- index.ts&#45;&gt;quote/index.ts -->
<g id="edge26" class="edge">
<title>index.ts&#45;&gt;quote/index.ts</title>
<path fill="none" stroke="#757575" d="M35.98,-321.21C44.82,-292.23 69.59,-214.72 99,-153.82 112.94,-124.96 132.72,-93.64 145.81,-73.88"/>
<polygon fill="#757575" stroke="#757575" points="148.82,-75.68 151.49,-65.42 143.01,-71.78 148.82,-75.68"/>
</g>
<!-- movie/movie.enum.ts -->
<g id="node21" class="node">
<title>movie/movie.enum.ts</title>
<path fill="none" stroke="#cfffac" d="M422.83,-165.32C422.83,-165.32 292.17,-165.32 292.17,-165.32 288.33,-165.32 284.5,-161.49 284.5,-157.66 284.5,-157.66 284.5,-149.99 284.5,-149.99 284.5,-146.16 288.33,-142.32 292.17,-142.32 292.17,-142.32 422.83,-142.32 422.83,-142.32 426.67,-142.32 430.5,-146.16 430.5,-149.99 430.5,-149.99 430.5,-157.66 430.5,-157.66 430.5,-161.49 426.67,-165.32 422.83,-165.32"/>
<text text-anchor="middle" x="357.5" y="-150.12" font-family="Arial" font-size="14.00" fill="#cfffac">movie/movie.enum.ts</text>
</g>
<!-- movie/index.ts&#45;&gt;movie/movie.enum.ts -->
<g id="edge27" class="edge">
<title>movie/index.ts&#45;&gt;movie/movie.enum.ts</title>
<path fill="none" stroke="#757575" d="M212.73,-168.57C231.55,-166.64 253.35,-164.4 274.2,-162.26"/>
<polygon fill="#757575" stroke="#757575" points="274.76,-165.73 284.35,-161.22 274.04,-158.76 274.76,-165.73"/>
</g>
<!-- movie/movie.interfaces.ts -->
<g id="node22" class="node">
<title>movie/movie.interfaces.ts</title>
<path fill="none" stroke="#cfffac" d="M674.83,-145.32C674.83,-145.32 520.17,-145.32 520.17,-145.32 516.33,-145.32 512.5,-141.49 512.5,-137.66 512.5,-137.66 512.5,-129.99 512.5,-129.99 512.5,-126.16 516.33,-122.32 520.17,-122.32 520.17,-122.32 674.83,-122.32 674.83,-122.32 678.67,-122.32 682.5,-126.16 682.5,-129.99 682.5,-129.99 682.5,-137.66 682.5,-137.66 682.5,-141.49 678.67,-145.32 674.83,-145.32"/>
<text text-anchor="middle" x="597.5" y="-130.12" font-family="Arial" font-size="14.00" fill="#cfffac">movie/movie.interfaces.ts</text>
</g>
<!-- movie/index.ts&#45;&gt;movie/movie.interfaces.ts -->
<g id="edge28" class="edge">
<title>movie/index.ts&#45;&gt;movie/movie.interfaces.ts</title>
<path fill="none" stroke="#757575" d="M182.58,-162.24C201.63,-152.47 230.79,-139.24 258,-133.82 339.27,-117.65 433.72,-119.29 502.16,-124.03"/>
<polygon fill="#757575" stroke="#757575" points="502.26,-127.55 512.49,-124.78 502.77,-120.57 502.26,-127.55"/>
</g>
<!-- movie/movie.ts -->
<g id="node23" class="node">
<title>movie/movie.ts</title>
<path fill="none" stroke="#c6c5fe" d="M403.83,-206.32C403.83,-206.32 311.17,-206.32 311.17,-206.32 307.33,-206.32 303.5,-202.49 303.5,-198.66 303.5,-198.66 303.5,-190.99 303.5,-190.99 303.5,-187.16 307.33,-183.32 311.17,-183.32 311.17,-183.32 403.83,-183.32 403.83,-183.32 407.67,-183.32 411.5,-187.16 411.5,-190.99 411.5,-190.99 411.5,-198.66 411.5,-198.66 411.5,-202.49 407.67,-206.32 403.83,-206.32"/>
<text text-anchor="middle" x="357.5" y="-191.12" font-family="Arial" font-size="14.00" fill="#c6c5fe">movie/movie.ts</text>
</g>
<!-- movie/index.ts&#45;&gt;movie/movie.ts -->
<g id="edge29" class="edge">
<title>movie/index.ts&#45;&gt;movie/movie.ts</title>
<path fill="none" stroke="#757575" d="M212.73,-179.34C237.34,-181.99 267.06,-185.19 293.08,-187.99"/>
<polygon fill="#757575" stroke="#757575" points="292.91,-191.5 303.23,-189.09 293.66,-184.54 292.91,-191.5"/>
</g>
<!-- quote/quote.enums.ts -->
<g id="node24" class="node">
<title>quote/quote.enums.ts</title>
<path fill="none" stroke="#cfffac" d="M423.33,-44.32C423.33,-44.32 291.67,-44.32 291.67,-44.32 287.83,-44.32 284,-40.49 284,-36.66 284,-36.66 284,-28.99 284,-28.99 284,-25.16 287.83,-21.32 291.67,-21.32 291.67,-21.32 423.33,-21.32 423.33,-21.32 427.17,-21.32 431,-25.16 431,-28.99 431,-28.99 431,-36.66 431,-36.66 431,-40.49 427.17,-44.32 423.33,-44.32"/>
<text text-anchor="middle" x="357.5" y="-29.12" font-family="Arial" font-size="14.00" fill="#cfffac">quote/quote.enums.ts</text>
</g>
<!-- quote/index.ts&#45;&gt;quote/quote.enums.ts -->
<g id="edge32" class="edge">
<title>quote/index.ts&#45;&gt;quote/quote.enums.ts</title>
<path fill="none" stroke="#757575" d="M211.21,-48.47C230.21,-46.42 252.42,-44.03 273.67,-41.74"/>
<polygon fill="#757575" stroke="#757575" points="274.12,-45.22 283.69,-40.66 273.37,-38.26 274.12,-45.22"/>
</g>
<!-- quote/quote.interfaces.ts -->
<g id="node25" class="node">
<title>quote/quote.interfaces.ts</title>
<path fill="none" stroke="#cfffac" d="M671.83,-64.32C671.83,-64.32 523.17,-64.32 523.17,-64.32 519.33,-64.32 515.5,-60.49 515.5,-56.66 515.5,-56.66 515.5,-48.99 515.5,-48.99 515.5,-45.16 519.33,-41.32 523.17,-41.32 523.17,-41.32 671.83,-41.32 671.83,-41.32 675.67,-41.32 679.5,-45.16 679.5,-48.99 679.5,-48.99 679.5,-56.66 679.5,-56.66 679.5,-60.49 675.67,-64.32 671.83,-64.32"/>
<text text-anchor="middle" x="597.5" y="-49.12" font-family="Arial" font-size="14.00" fill="#cfffac">quote/quote.interfaces.ts</text>
</g>
<!-- quote/index.ts&#45;&gt;quote/quote.interfaces.ts -->
<g id="edge33" class="edge">
<title>quote/index.ts&#45;&gt;quote/quote.interfaces.ts</title>
<path fill="none" stroke="#757575" d="M181.4,-42.26C200.36,-31.96 230.09,-17.63 258,-11.82 344.59,6.2 369.46,0.77 457,-11.82 491.49,-16.79 529.35,-28.32 556.91,-37.89"/>
<polygon fill="#757575" stroke="#757575" points="555.98,-41.28 566.58,-41.32 558.32,-34.68 555.98,-41.28"/>
</g>
<!-- quote/quote.ts -->
<g id="node26" class="node">
<title>quote/quote.ts</title>
<path fill="none" stroke="#c6c5fe" d="M400.83,-85.32C400.83,-85.32 314.17,-85.32 314.17,-85.32 310.33,-85.32 306.5,-81.49 306.5,-77.66 306.5,-77.66 306.5,-69.99 306.5,-69.99 306.5,-66.16 310.33,-62.32 314.17,-62.32 314.17,-62.32 400.83,-62.32 400.83,-62.32 404.67,-62.32 408.5,-66.16 408.5,-69.99 408.5,-69.99 408.5,-77.66 408.5,-77.66 408.5,-81.49 404.67,-85.32 400.83,-85.32"/>
<text text-anchor="middle" x="357.5" y="-70.12" font-family="Arial" font-size="14.00" fill="#c6c5fe">quote/quote.ts</text>
</g>
<!-- quote/index.ts&#45;&gt;quote/quote.ts -->
<g id="edge34" class="edge">
<title>quote/index.ts&#45;&gt;quote/quote.ts</title>
<path fill="none" stroke="#757575" d="M211.21,-58.92C237.03,-61.57 268.78,-64.83 296.01,-67.62"/>
<polygon fill="#757575" stroke="#757575" points="295.9,-71.13 306.2,-68.66 296.61,-64.16 295.9,-71.13"/>
</g>
<!-- movie/movie.ts&#45;&gt;common/base.resource.class.ts -->
<g id="edge30" class="edge">
<title>movie/movie.ts&#45;&gt;common/base.resource.class.ts</title>
<path fill="none" stroke="#757575" d="M373.97,-206.46C395.4,-223.33 434.06,-256.53 457,-292.82 482.68,-333.46 459.37,-360.47 493,-394.82 503.31,-405.36 516.75,-413.08 530.51,-418.73"/>
<polygon fill="#757575" stroke="#757575" points="529.46,-422.08 540.06,-422.32 531.93,-415.53 529.46,-422.08"/>
</g>
<!-- movie/movie.ts&#45;&gt;movie/movie.interfaces.ts -->
<g id="edge31" class="edge">
<title>movie/movie.ts&#45;&gt;movie/movie.interfaces.ts</title>
<path fill="none" stroke="#757575" d="M411.6,-184.91C426.35,-181.92 442.35,-178.46 457,-174.82 488.53,-167 523.62,-156.68 550.71,-148.36"/>
<polygon fill="#757575" stroke="#757575" points="551.79,-151.68 560.31,-145.38 549.72,-145 551.79,-151.68"/>
</g>
<!-- quote/quote.ts&#45;&gt;common/base.resource.class.ts -->
<g id="edge35" class="edge">
<title>quote/quote.ts&#45;&gt;common/base.resource.class.ts</title>
<path fill="none" stroke="#757575" d="M391.85,-85.38C414.01,-94.86 441.74,-110.55 457,-133.82 521.21,-231.75 419.94,-303.31 493,-394.82 501.26,-405.17 512.57,-412.77 524.7,-418.35"/>
<polygon fill="#757575" stroke="#757575" points="523.52,-421.65 534.09,-422.24 526.19,-415.18 523.52,-421.65"/>
</g>
<!-- quote/quote.ts&#45;&gt;quote/quote.interfaces.ts -->
<g id="edge36" class="edge">
<title>quote/quote.ts&#45;&gt;quote/quote.interfaces.ts</title>
<path fill="none" stroke="#757575" d="M408.68,-69.4C436.74,-66.92 472.57,-63.76 505.4,-60.86"/>
<polygon fill="#757575" stroke="#757575" points="505.83,-64.34 515.48,-59.97 505.21,-57.36 505.83,-64.34"/>
</g>
</g>
</svg>
