<?xml version="1.0" encoding="UTF-8" standalone="no"?>
<!DOCTYPE svg PUBLIC "-//W3C//DTD SVG 1.1//EN"
 "http://www.w3.org/Graphics/SVG/1.1/DTD/svg11.dtd">
<!-- Generated by graphviz version 3.0.0 (20220226.1711)
 -->
<!-- Title: G Pages: 1 -->
<svg width="507pt" height="147pt"
 viewBox="0.00 0.00 507.20 147.20" xmlns="http://www.w3.org/2000/svg" xmlns:xlink="http://www.w3.org/1999/xlink">
<g id="graph0" class="graph" transform="scale(1 1) rotate(0) translate(21.6 125.6)">
<title>G</title>
<polygon fill="#111111" stroke="transparent" points="-21.6,21.6 -21.6,-125.6 485.6,-125.6 485.6,21.6 -21.6,21.6"/>
<!-- ../common/base.resource.class.ts -->
<g id="node1" class="node">
<title>../common/base.resource.class.ts</title>
<path fill="none" stroke="#cfffac" d="M456.33,-23C456.33,-23 252.67,-23 252.67,-23 248.83,-23 245,-19.17 245,-15.33 245,-15.33 245,-7.67 245,-7.67 245,-3.83 248.83,0 252.67,0 252.67,0 456.33,0 456.33,0 460.17,0 464,-3.83 464,-7.67 464,-7.67 464,-15.33 464,-15.33 464,-19.17 460.17,-23 456.33,-23"/>
<text text-anchor="middle" x="354.5" y="-7.8" font-family="Arial" font-size="14.00" fill="#cfffac">../common/base.resource.class.ts</text>
</g>
<!-- index.ts -->
<g id="node2" class="node">
<title>index.ts</title>
<path fill="none" stroke="#c6c5fe" d="M55.33,-64C55.33,-64 7.67,-64 7.67,-64 3.83,-64 0,-60.17 0,-56.33 0,-56.33 0,-48.67 0,-48.67 0,-44.83 3.83,-41 7.67,-41 7.67,-41 55.33,-41 55.33,-41 59.17,-41 63,-44.83 63,-48.67 63,-48.67 63,-56.33 63,-56.33 63,-60.17 59.17,-64 55.33,-64"/>
<text text-anchor="middle" x="31.5" y="-48.8" font-family="Arial" font-size="14.00" fill="#c6c5fe">index.ts</text>
</g>
<!-- quote.enums.ts -->
<g id="node3" class="node">
<title>quote.enums.ts</title>
<path fill="none" stroke="#cfffac" d="M201.33,-104C201.33,-104 106.67,-104 106.67,-104 102.83,-104 99,-100.17 99,-96.33 99,-96.33 99,-88.67 99,-88.67 99,-84.83 102.83,-81 106.67,-81 106.67,-81 201.33,-81 201.33,-81 205.17,-81 209,-84.83 209,-88.67 209,-88.67 209,-96.33 209,-96.33 209,-100.17 205.17,-104 201.33,-104"/>
<text text-anchor="middle" x="154" y="-88.8" font-family="Arial" font-size="14.00" fill="#cfffac">quote.enums.ts</text>
</g>
<!-- index.ts&#45;&gt;quote.enums.ts -->
<g id="edge1" class="edge">
<title>index.ts&#45;&gt;quote.enums.ts</title>
<path fill="none" stroke="#757575" d="M63.22,-62.7C76.95,-67.25 93.39,-72.71 108.44,-77.71"/>
<polygon fill="#757575" stroke="#757575" points="107.48,-81.08 118.08,-80.91 109.69,-74.43 107.48,-81.08"/>
</g>
<!-- quote.interfaces.ts -->
<g id="node4" class="node">
<title>quote.interfaces.ts</title>
<path fill="none" stroke="#cfffac" d="M410.33,-64C410.33,-64 298.67,-64 298.67,-64 294.83,-64 291,-60.17 291,-56.33 291,-56.33 291,-48.67 291,-48.67 291,-44.83 294.83,-41 298.67,-41 298.67,-41 410.33,-41 410.33,-41 414.17,-41 418,-44.83 418,-48.67 418,-48.67 418,-56.33 418,-56.33 418,-60.17 414.17,-64 410.33,-64"/>
<text text-anchor="middle" x="354.5" y="-48.8" font-family="Arial" font-size="14.00" fill="#cfffac">quote.interfaces.ts</text>
</g>
<!-- index.ts&#45;&gt;quote.interfaces.ts -->
<g id="edge2" class="edge">
<title>index.ts&#45;&gt;quote.interfaces.ts</title>
<path fill="none" stroke="#757575" d="M63.28,-52.5C112.91,-52.5 211.96,-52.5 280.44,-52.5"/>
<polygon fill="#757575" stroke="#757575" points="280.74,-56 290.74,-52.5 280.74,-49 280.74,-56"/>
</g>
<!-- quote.ts -->
<g id="node5" class="node">
<title>quote.ts</title>
<path fill="none" stroke="#c6c5fe" d="M178.83,-24C178.83,-24 129.17,-24 129.17,-24 125.33,-24 121.5,-20.17 121.5,-16.33 121.5,-16.33 121.5,-8.67 121.5,-8.67 121.5,-4.83 125.33,-1 129.17,-1 129.17,-1 178.83,-1 178.83,-1 182.67,-1 186.5,-4.83 186.5,-8.67 186.5,-8.67 186.5,-16.33 186.5,-16.33 186.5,-20.17 182.67,-24 178.83,-24"/>
<text text-anchor="middle" x="154" y="-8.8" font-family="Arial" font-size="14.00" fill="#c6c5fe">quote.ts</text>
</g>
<!-- index.ts&#45;&gt;quote.ts -->
<g id="edge3" class="edge">
<title>index.ts&#45;&gt;quote.ts</title>
<path fill="none" stroke="#757575" d="M63.22,-42.3C78,-37.4 95.94,-31.44 111.88,-26.15"/>
<polygon fill="#757575" stroke="#757575" points="113.11,-29.43 121.5,-22.96 110.9,-22.79 113.11,-29.43"/>
</g>
<!-- quote.ts&#45;&gt;../common/base.resource.class.ts -->
<g id="edge4" class="edge">
<title>quote.ts&#45;&gt;../common/base.resource.class.ts</title>
<path fill="none" stroke="#757575" d="M186.89,-12.34C200.36,-12.27 216.96,-12.19 234.41,-12.1"/>
<polygon fill="#757575" stroke="#757575" points="234.79,-15.6 244.77,-12.05 234.75,-8.6 234.79,-15.6"/>
</g>
<!-- quote.ts&#45;&gt;quote.interfaces.ts -->
<g id="edge5" class="edge">
<title>quote.ts&#45;&gt;quote.interfaces.ts</title>
<path fill="none" stroke="#757575" d="M186.63,-19.31C203.87,-22.99 225.59,-27.57 245,-31.5 257.24,-33.98 270.27,-36.55 282.9,-39.01"/>
<polygon fill="#757575" stroke="#757575" points="282.44,-42.49 292.92,-40.96 283.77,-35.62 282.44,-42.49"/>
</g>
</g>
</svg>
