<?xml version="1.0" encoding="UTF-8" standalone="no"?>
<!DOCTYPE svg PUBLIC "-//W3C//DTD SVG 1.1//EN"
 "http://www.w3.org/Graphics/SVG/1.1/DTD/svg11.dtd">
<!-- Generated by graphviz version 3.0.0 (20220226.1711)
 -->
<!-- Title: G Pages: 1 -->
<svg width="502pt" height="147pt"
 viewBox="0.00 0.00 502.20 147.20" xmlns="http://www.w3.org/2000/svg" xmlns:xlink="http://www.w3.org/1999/xlink">
<g id="graph0" class="graph" transform="scale(1 1) rotate(0) translate(21.6 125.6)">
<title>G</title>
<polygon fill="#111111" stroke="transparent" points="-21.6,21.6 -21.6,-125.6 480.6,-125.6 480.6,21.6 -21.6,21.6"/>
<!-- ../common/base.resource.class.ts -->
<g id="node1" class="node">
<title>../common/base.resource.class.ts</title>
<path fill="none" stroke="#cfffac" d="M451.33,-23C451.33,-23 247.67,-23 247.67,-23 243.83,-23 240,-19.17 240,-15.33 240,-15.33 240,-7.67 240,-7.67 240,-3.83 243.83,0 247.67,0 247.67,0 451.33,0 451.33,0 455.17,0 459,-3.83 459,-7.67 459,-7.67 459,-15.33 459,-15.33 459,-19.17 455.17,-23 451.33,-23"/>
<text text-anchor="middle" x="349.5" y="-7.8" font-family="Arial" font-size="14.00" fill="#cfffac">../common/base.resource.class.ts</text>
</g>
<!-- book.enums.ts -->
<g id="node2" class="node">
<title>book.enums.ts</title>
<path fill="none" stroke="#cfffac" d="M196.33,-104C196.33,-104 106.67,-104 106.67,-104 102.83,-104 99,-100.17 99,-96.33 99,-96.33 99,-88.67 99,-88.67 99,-84.83 102.83,-81 106.67,-81 106.67,-81 196.33,-81 196.33,-81 200.17,-81 204,-84.83 204,-88.67 204,-88.67 204,-96.33 204,-96.33 204,-100.17 200.17,-104 196.33,-104"/>
<text text-anchor="middle" x="151.5" y="-88.8" font-family="Arial" font-size="14.00" fill="#cfffac">book.enums.ts</text>
</g>
<!-- book.interfaces.ts -->
<g id="node3" class="node">
<title>book.interfaces.ts</title>
<path fill="none" stroke="#cfffac" d="M402.83,-64C402.83,-64 296.17,-64 296.17,-64 292.33,-64 288.5,-60.17 288.5,-56.33 288.5,-56.33 288.5,-48.67 288.5,-48.67 288.5,-44.83 292.33,-41 296.17,-41 296.17,-41 402.83,-41 402.83,-41 406.67,-41 410.5,-44.83 410.5,-48.67 410.5,-48.67 410.5,-56.33 410.5,-56.33 410.5,-60.17 406.67,-64 402.83,-64"/>
<text text-anchor="middle" x="349.5" y="-48.8" font-family="Arial" font-size="14.00" fill="#cfffac">book.interfaces.ts</text>
</g>
<!-- book.ts -->
<g id="node4" class="node">
<title>book.ts</title>
<path fill="none" stroke="#c6c5fe" d="M173.83,-24C173.83,-24 129.17,-24 129.17,-24 125.33,-24 121.5,-20.17 121.5,-16.33 121.5,-16.33 121.5,-8.67 121.5,-8.67 121.5,-4.83 125.33,-1 129.17,-1 129.17,-1 173.83,-1 173.83,-1 177.67,-1 181.5,-4.83 181.5,-8.67 181.5,-8.67 181.5,-16.33 181.5,-16.33 181.5,-20.17 177.67,-24 173.83,-24"/>
<text text-anchor="middle" x="151.5" y="-8.8" font-family="Arial" font-size="14.00" fill="#c6c5fe">book.ts</text>
</g>
<!-- book.ts&#45;&gt;../common/base.resource.class.ts -->
<g id="edge1" class="edge">
<title>book.ts&#45;&gt;../common/base.resource.class.ts</title>
<path fill="none" stroke="#757575" d="M181.84,-12.35C195.14,-12.28 211.84,-12.2 229.48,-12.11"/>
<polygon fill="#757575" stroke="#757575" points="229.98,-15.6 239.97,-12.05 229.95,-8.6 229.98,-15.6"/>
</g>
<!-- book.ts&#45;&gt;book.interfaces.ts -->
<g id="edge2" class="edge">
<title>book.ts&#45;&gt;book.interfaces.ts</title>
<path fill="none" stroke="#757575" d="M181.63,-19C198.63,-22.75 220.51,-27.5 240,-31.5 252.38,-34.04 265.58,-36.67 278.35,-39.16"/>
<polygon fill="#757575" stroke="#757575" points="277.99,-42.66 288.48,-41.13 279.33,-35.79 277.99,-42.66"/>
</g>
<!-- index.ts -->
<g id="node5" class="node">
<title>index.ts</title>
<path fill="none" stroke="#c6c5fe" d="M55.33,-64C55.33,-64 7.67,-64 7.67,-64 3.83,-64 0,-60.17 0,-56.33 0,-56.33 0,-48.67 0,-48.67 0,-44.83 3.83,-41 7.67,-41 7.67,-41 55.33,-41 55.33,-41 59.17,-41 63,-44.83 63,-48.67 63,-48.67 63,-56.33 63,-56.33 63,-60.17 59.17,-64 55.33,-64"/>
<text text-anchor="middle" x="31.5" y="-48.8" font-family="Arial" font-size="14.00" fill="#c6c5fe">index.ts</text>
</g>
<!-- index.ts&#45;&gt;book.enums.ts -->
<g id="edge3" class="edge">
<title>index.ts&#45;&gt;book.enums.ts</title>
<path fill="none" stroke="#757575" d="M63.2,-62.91C76.4,-67.38 92.08,-72.7 106.49,-77.58"/>
<polygon fill="#757575" stroke="#757575" points="105.62,-80.98 116.21,-80.88 107.87,-74.35 105.62,-80.98"/>
</g>
<!-- index.ts&#45;&gt;book.interfaces.ts -->
<g id="edge4" class="edge">
<title>index.ts&#45;&gt;book.interfaces.ts</title>
<path fill="none" stroke="#757575" d="M63.09,-52.5C112.44,-52.5 210.91,-52.5 278.24,-52.5"/>
<polygon fill="#757575" stroke="#757575" points="278.36,-56 288.36,-52.5 278.36,-49 278.36,-56"/>
</g>
<!-- index.ts&#45;&gt;book.ts -->
<g id="edge5" class="edge">
<title>index.ts&#45;&gt;book.ts</title>
<path fill="none" stroke="#757575" d="M63.2,-42.09C78.01,-37.07 95.95,-30.99 111.7,-25.65"/>
<polygon fill="#757575" stroke="#757575" points="112.83,-28.96 121.18,-22.44 110.58,-22.34 112.83,-28.96"/>
</g>
</g>
</svg>
