<?xml version="1.0" encoding="UTF-8" standalone="no"?>
<!DOCTYPE svg PUBLIC "-//W3C//DTD SVG 1.1//EN"
 "http://www.w3.org/Graphics/SVG/1.1/DTD/svg11.dtd">
<!-- Generated by graphviz version 3.0.0 (20220226.1711)
 -->
<!-- Title: G Pages: 1 -->
<svg width="534pt" height="148pt"
 viewBox="0.00 0.00 534.20 148.20" xmlns="http://www.w3.org/2000/svg" xmlns:xlink="http://www.w3.org/1999/xlink">
<g id="graph0" class="graph" transform="scale(1 1) rotate(0) translate(21.6 126.6)">
<title>G</title>
<polygon fill="#111111" stroke="transparent" points="-21.6,21.6 -21.6,-126.6 512.6,-126.6 512.6,21.6 -21.6,21.6"/>
<!-- ../common/base.resource.class.ts -->
<g id="node1" class="node">
<title>../common/base.resource.class.ts</title>
<path fill="none" stroke="#cfffac" d="M483.33,-23C483.33,-23 279.67,-23 279.67,-23 275.83,-23 272,-19.17 272,-15.33 272,-15.33 272,-7.67 272,-7.67 272,-3.83 275.83,0 279.67,0 279.67,0 483.33,0 483.33,0 487.17,0 491,-3.83 491,-7.67 491,-7.67 491,-15.33 491,-15.33 491,-19.17 487.17,-23 483.33,-23"/>
<text text-anchor="middle" x="381.5" y="-7.8" font-family="Arial" font-size="14.00" fill="#cfffac">../common/base.resource.class.ts</text>
</g>
<!-- chapter.enums.ts -->
<g id="node2" class="node">
<title>chapter.enums.ts</title>
<path fill="none" stroke="#cfffac" d="M219.83,-105C219.83,-105 115.17,-105 115.17,-105 111.33,-105 107.5,-101.17 107.5,-97.33 107.5,-97.33 107.5,-89.67 107.5,-89.67 107.5,-85.83 111.33,-82 115.17,-82 115.17,-82 219.83,-82 219.83,-82 223.67,-82 227.5,-85.83 227.5,-89.67 227.5,-89.67 227.5,-97.33 227.5,-97.33 227.5,-101.17 223.67,-105 219.83,-105"/>
<text text-anchor="middle" x="167.5" y="-89.8" font-family="Arial" font-size="14.00" fill="#cfffac">chapter.enums.ts</text>
</g>
<!-- chapter.interfaces.ts -->
<g id="node3" class="node">
<title>chapter.interfaces.ts</title>
<path fill="none" stroke="#cfffac" d="M228.33,-64C228.33,-64 106.67,-64 106.67,-64 102.83,-64 99,-60.17 99,-56.33 99,-56.33 99,-48.67 99,-48.67 99,-44.83 102.83,-41 106.67,-41 106.67,-41 228.33,-41 228.33,-41 232.17,-41 236,-44.83 236,-48.67 236,-48.67 236,-56.33 236,-56.33 236,-60.17 232.17,-64 228.33,-64"/>
<text text-anchor="middle" x="167.5" y="-48.8" font-family="Arial" font-size="14.00" fill="#cfffac">chapter.interfaces.ts</text>
</g>
<!-- chapter.ts -->
<g id="node4" class="node">
<title>chapter.ts</title>
<path fill="none" stroke="#c6c5fe" d="M197.33,-23C197.33,-23 137.67,-23 137.67,-23 133.83,-23 130,-19.17 130,-15.33 130,-15.33 130,-7.67 130,-7.67 130,-3.83 133.83,0 137.67,0 137.67,0 197.33,0 197.33,0 201.17,0 205,-3.83 205,-7.67 205,-7.67 205,-15.33 205,-15.33 205,-19.17 201.17,-23 197.33,-23"/>
<text text-anchor="middle" x="167.5" y="-7.8" font-family="Arial" font-size="14.00" fill="#c6c5fe">chapter.ts</text>
</g>
<!-- chapter.ts&#45;&gt;../common/base.resource.class.ts -->
<g id="edge1" class="edge">
<title>chapter.ts&#45;&gt;../common/base.resource.class.ts</title>
<path fill="none" stroke="#757575" d="M205.43,-11.5C221.43,-11.5 241.16,-11.5 261.54,-11.5"/>
<polygon fill="#757575" stroke="#757575" points="261.58,-15 271.58,-11.5 261.58,-8 261.58,-15"/>
</g>
<!-- index.ts -->
<g id="node5" class="node">
<title>index.ts</title>
<path fill="none" stroke="#c6c5fe" d="M55.33,-64C55.33,-64 7.67,-64 7.67,-64 3.83,-64 0,-60.17 0,-56.33 0,-56.33 0,-48.67 0,-48.67 0,-44.83 3.83,-41 7.67,-41 7.67,-41 55.33,-41 55.33,-41 59.17,-41 63,-44.83 63,-48.67 63,-48.67 63,-56.33 63,-56.33 63,-60.17 59.17,-64 55.33,-64"/>
<text text-anchor="middle" x="31.5" y="-48.8" font-family="Arial" font-size="14.00" fill="#c6c5fe">index.ts</text>
</g>
<!-- index.ts&#45;&gt;chapter.enums.ts -->
<g id="edge2" class="edge">
<title>index.ts&#45;&gt;chapter.enums.ts</title>
<path fill="none" stroke="#757575" d="M63.25,-62.34C74.49,-65.9 87.31,-69.92 99,-73.5 104.98,-75.33 111.27,-77.23 117.5,-79.09"/>
<polygon fill="#757575" stroke="#757575" points="116.62,-82.48 127.2,-81.98 118.62,-75.77 116.62,-82.48"/>
</g>
<!-- index.ts&#45;&gt;chapter.interfaces.ts -->
<g id="edge3" class="edge">
<title>index.ts&#45;&gt;chapter.interfaces.ts</title>
<path fill="none" stroke="#757575" d="M63.24,-52.5C70.99,-52.5 79.66,-52.5 88.6,-52.5"/>
<polygon fill="#757575" stroke="#757575" points="88.77,-56 98.77,-52.5 88.77,-49 88.77,-56"/>
</g>
<!-- index.ts&#45;&gt;chapter.ts -->
<g id="edge4" class="edge">
<title>index.ts&#45;&gt;chapter.ts</title>
<path fill="none" stroke="#757575" d="M63.24,-43.09C80.09,-37.94 101.31,-31.45 120.12,-25.69"/>
<polygon fill="#757575" stroke="#757575" points="121.17,-29.03 129.71,-22.76 119.12,-22.34 121.17,-29.03"/>
</g>
</g>
</svg>
