<?xml version="1.0" encoding="UTF-8" standalone="no"?>
<!DOCTYPE svg PUBLIC "-//W3C//DTD SVG 1.1//EN"
 "http://www.w3.org/Graphics/SVG/1.1/DTD/svg11.dtd">
<!-- Generated by graphviz version 3.0.0 (20220226.1711)
 -->
<!-- Title: G Pages: 1 -->
<svg width="625pt" height="125pt"
 viewBox="0.00 0.00 625.20 124.69" xmlns="http://www.w3.org/2000/svg" xmlns:xlink="http://www.w3.org/1999/xlink">
<g id="graph0" class="graph" transform="scale(1 1) rotate(0) translate(21.6 103.09)">
<title>G</title>
<polygon fill="#111111" stroke="transparent" points="-21.6,21.6 -21.6,-103.09 603.6,-103.09 603.6,21.6 -21.6,21.6"/>
<!-- common.enums.ts -->
<g id="node1" class="node">
<title>common.enums.ts</title>
<path fill="none" stroke="#cfffac" d="M574.33,-63C574.33,-63 460.67,-63 460.67,-63 456.83,-63 453,-59.17 453,-55.33 453,-55.33 453,-47.67 453,-47.67 453,-43.83 456.83,-40 460.67,-40 460.67,-40 574.33,-40 574.33,-40 578.17,-40 582,-43.83 582,-47.67 582,-47.67 582,-55.33 582,-55.33 582,-59.17 578.17,-63 574.33,-63"/>
<text text-anchor="middle" x="517.5" y="-47.8" font-family="Arial" font-size="14.00" fill="#cfffac">common.enums.ts</text>
</g>
<!-- common.functions.ts -->
<g id="node2" class="node">
<title>common.functions.ts</title>
<path fill="none" stroke="#c6c5fe" d="M233.33,-62C233.33,-62 106.67,-62 106.67,-62 102.83,-62 99,-58.17 99,-54.33 99,-54.33 99,-46.67 99,-46.67 99,-42.83 102.83,-39 106.67,-39 106.67,-39 233.33,-39 233.33,-39 237.17,-39 241,-42.83 241,-46.67 241,-46.67 241,-54.33 241,-54.33 241,-58.17 237.17,-62 233.33,-62"/>
<text text-anchor="middle" x="170" y="-46.8" font-family="Arial" font-size="14.00" fill="#c6c5fe">common.functions.ts</text>
</g>
<!-- common.functions.ts&#45;&gt;common.enums.ts -->
<g id="edge1" class="edge">
<title>common.functions.ts&#45;&gt;common.enums.ts</title>
<path fill="none" stroke="#757575" d="M241.33,-50.7C299.99,-50.87 383.31,-51.11 442.87,-51.29"/>
<polygon fill="#757575" stroke="#757575" points="442.94,-54.79 452.96,-51.32 442.97,-47.79 442.94,-54.79"/>
</g>
<!-- common.interface.ts -->
<g id="node3" class="node">
<title>common.interface.ts</title>
<path fill="none" stroke="#c6c5fe" d="M409.33,-23C409.33,-23 284.67,-23 284.67,-23 280.83,-23 277,-19.17 277,-15.33 277,-15.33 277,-7.67 277,-7.67 277,-3.83 280.83,0 284.67,0 284.67,0 409.33,0 409.33,0 413.17,0 417,-3.83 417,-7.67 417,-7.67 417,-15.33 417,-15.33 417,-19.17 413.17,-23 409.33,-23"/>
<text text-anchor="middle" x="347" y="-7.8" font-family="Arial" font-size="14.00" fill="#c6c5fe">common.interface.ts</text>
</g>
<!-- common.functions.ts&#45;&gt;common.interface.ts -->
<g id="edge2" class="edge">
<title>common.functions.ts&#45;&gt;common.interface.ts</title>
<path fill="none" stroke="#757575" d="M223.03,-38.9C242.25,-34.62 264.22,-29.72 284.22,-25.27"/>
<polygon fill="#757575" stroke="#757575" points="285.17,-28.64 294.17,-23.05 283.65,-21.81 285.17,-28.64"/>
</g>
<!-- common.interface.ts&#45;&gt;common.enums.ts -->
<g id="edge3" class="edge">
<title>common.interface.ts&#45;&gt;common.enums.ts</title>
<path fill="none" stroke="#757575" d="M396.74,-23.07C415.86,-27.61 437.97,-32.86 457.95,-37.6"/>
<polygon fill="#757575" stroke="#757575" points="457.33,-41.05 467.87,-39.96 458.95,-34.24 457.33,-41.05"/>
</g>
<!-- index.ts -->
<g id="node4" class="node">
<title>index.ts</title>
<path fill="none" stroke="#c6c5fe" d="M55.33,-62C55.33,-62 7.67,-62 7.67,-62 3.83,-62 0,-58.17 0,-54.33 0,-54.33 0,-46.67 0,-46.67 0,-42.83 3.83,-39 7.67,-39 7.67,-39 55.33,-39 55.33,-39 59.17,-39 63,-42.83 63,-46.67 63,-46.67 63,-54.33 63,-54.33 63,-58.17 59.17,-62 55.33,-62"/>
<text text-anchor="middle" x="31.5" y="-46.8" font-family="Arial" font-size="14.00" fill="#c6c5fe">index.ts</text>
</g>
<!-- index.ts&#45;&gt;common.enums.ts -->
<g id="edge4" class="edge">
<title>index.ts&#45;&gt;common.enums.ts</title>
<path fill="none" stroke="#757575" d="M63.2,-61.77C74.32,-65.31 87.07,-68.75 99,-70.5 238.85,-91.07 276.15,-77.37 417,-65.5 425.37,-64.79 434.11,-63.86 442.79,-62.8"/>
<polygon fill="#757575" stroke="#757575" points="443.44,-66.25 452.92,-61.52 442.56,-59.31 443.44,-66.25"/>
</g>
<!-- index.ts&#45;&gt;common.functions.ts -->
<g id="edge5" class="edge">
<title>index.ts&#45;&gt;common.functions.ts</title>
<path fill="none" stroke="#757575" d="M63.13,-50.5C70.9,-50.5 79.61,-50.5 88.62,-50.5"/>
<polygon fill="#757575" stroke="#757575" points="88.87,-54 98.87,-50.5 88.87,-47 88.87,-54"/>
</g>
<!-- index.ts&#45;&gt;common.interface.ts -->
<g id="edge6" class="edge">
<title>index.ts&#45;&gt;common.interface.ts</title>
<path fill="none" stroke="#757575" d="M63.24,-39.15C74.36,-35.48 87.11,-31.78 99,-29.5 154.39,-18.89 217.86,-14.42 266.6,-12.6"/>
<polygon fill="#757575" stroke="#757575" points="266.89,-16.09 276.76,-12.24 266.65,-9.09 266.89,-16.09"/>
</g>
</g>
</svg>
